<svg xmlns="http://www.w3.org/2000/svg" viewBox="0 0 400 400">
  <g id="freepik--Checklist--inject-2">
    <rect x="137.73" y="75.19" width="242.51" height="332.3" style="fill:#455a64"></rect>
    <polygon
      points="370.65 387.73 325.74 387.73 157.93 387.73 157.93 88.62 370.65 88.62 370.65 350.52 370.65 387.73"
      style="fill:#e0e0e0"></polygon>
    <polygon
      points="367.29 382.18 322.78 382.18 156.48 382.18 156.48 84.67 367.29 84.67 367.29 345.17 367.29 382.18"
      style="fill:#ebebeb"></polygon>
    <polygon
      points="344.64 359.03 320.36 378.8 152.55 378.8 152.55 85.42 365.27 85.42 365.27 342.3 344.64 359.03"
      style="fill:#fafafa"></polygon>
    <path
      d="M344.64,359s.43-.37,1.3-1.08l3.89-3.18,15.39-12.53,0,.06c0-42.2-.08-136-.15-256.88l.23.24-210.87,0h-1.85l.26-.26c0,110.3,0,212.05-.06,293.38l-.2-.21,167.81.12-.06,0,18.24-14.79,4.57-3.69c1-.82,1.53-1.22,1.53-1.22l-1.5,1.25L338.6,364l-18.18,14.86,0,0h0L152.55,379h-.21v-.21c0-81.33,0-183.08-.05-293.38v-.26h2.11l210.87,0h.24v.23c-.07,120.92-.13,214.68-.15,256.88v0l0,0-15.45,12.47L346,358Z"
      style="fill:#263238"></path>
    <path
      d="M230.21,64.92h58.15a14.15,14.15,0,0,1,14.15,14.15V94.76a0,0,0,0,1,0,0H215.45a0,0,0,0,1,0,0V79.67A14.76,14.76,0,0,1,230.21,64.92Z"
      style="fill:#407BFF"></path>
    <polygon points="236.78 64.92 233.6 48.82 283.73 48.82 280.94 64.92 236.78 64.92"
      style="fill:#407BFF"></polygon>
    <path d="M210.63,168H174.8V132.16h35.83Zm-34.83-1h33.83V133.16H175.8Z" style="fill:#407BFF"></path>
    <path
      d="M337.28,140.82c0,.14-24.95.26-55.71.26s-55.72-.12-55.72-.26,24.94-.26,55.72-.26S337.28,140.67,337.28,140.82Z"
      style="fill:#263238"></path>
    <path
      d="M337.28,148.26c0,.15-24.95.26-55.71.26s-55.72-.11-55.72-.26,24.94-.26,55.72-.26S337.28,148.12,337.28,148.26Z"
      style="fill:#263238"></path>
    <path
      d="M337.28,155.71c0,.14-24.95.26-55.71.26s-55.72-.12-55.72-.26,24.94-.26,55.72-.26S337.28,155.57,337.28,155.71Z"
      style="fill:#263238"></path>
    <path
      d="M337.28,163.16c0,.14-24.95.26-55.71.26s-55.72-.12-55.72-.26,24.94-.26,55.72-.26S337.28,163,337.28,163.16Z"
      style="fill:#263238"></path>
    <path d="M210.63,223.23H174.8V187.39h35.83Zm-34.83-1h33.83V188.39H175.8Z" style="fill:#407BFF"></path>
    <polygon
      points="181.92 206.05 186.68 200.94 194.61 207.28 212.76 189.66 217.11 194.79 194.26 217.33 181.92 206.05"
      style="fill:#407BFF"></polygon>
    <path
      d="M337.28,196.05c0,.14-24.95.26-55.71.26s-55.72-.12-55.72-.26,24.94-.26,55.72-.26S337.28,195.91,337.28,196.05Z"
      style="fill:#263238"></path>
    <path
      d="M337.28,203.5c0,.14-24.95.26-55.71.26s-55.72-.12-55.72-.26,24.94-.26,55.72-.26S337.28,203.35,337.28,203.5Z"
      style="fill:#263238"></path>
    <path
      d="M337.28,210.94c0,.15-24.95.26-55.71.26s-55.72-.11-55.72-.26,24.94-.26,55.72-.26S337.28,210.8,337.28,210.94Z"
      style="fill:#263238"></path>
    <path
      d="M337.28,218.39c0,.14-24.95.26-55.71.26s-55.72-.12-55.72-.26,24.94-.26,55.72-.26S337.28,218.25,337.28,218.39Z"
      style="fill:#263238"></path>
    <path d="M210.63,276.68H174.8V240.84h35.83Zm-34.83-1h33.83V241.84H175.8Z" style="fill:#407BFF"></path>
    <polygon
      points="181.92 259.5 186.68 254.39 194.61 260.73 212.76 243.11 217.11 248.24 194.26 270.78 181.92 259.5"
      style="fill:#407BFF"></polygon>
    <path
      d="M337.28,249.5c0,.14-24.95.26-55.71.26s-55.72-.12-55.72-.26,24.94-.26,55.72-.26S337.28,249.35,337.28,249.5Z"
      style="fill:#263238"></path>
    <path
      d="M337.28,256.94c0,.15-24.95.26-55.71.26s-55.72-.11-55.72-.26,24.94-.26,55.72-.26S337.28,256.8,337.28,256.94Z"
      style="fill:#263238"></path>
    <path
      d="M337.28,264.39c0,.15-24.95.26-55.71.26s-55.72-.11-55.72-.26,24.94-.26,55.72-.26S337.28,264.25,337.28,264.39Z"
      style="fill:#263238"></path>
    <path
      d="M337.28,271.84c0,.14-24.95.26-55.71.26s-55.72-.12-55.72-.26,24.94-.26,55.72-.26S337.28,271.7,337.28,271.84Z"
      style="fill:#263238"></path>
    <path d="M210.63,328.29H174.8V292.45h35.83Zm-34.83-1h33.83V293.45H175.8Z" style="fill:#407BFF"></path>
    <polygon
      points="181.92 311.11 186.68 306 194.61 312.34 212.76 294.72 217.11 299.84 194.26 322.38 181.92 311.11"
      style="fill:#407BFF"></polygon>
    <path
      d="M337.28,301.1c0,.15-24.95.26-55.71.26s-55.72-.11-55.72-.26,24.94-.26,55.72-.26S337.28,301,337.28,301.1Z"
      style="fill:#263238"></path>
    <path
      d="M337.28,308.55c0,.14-24.95.26-55.71.26s-55.72-.12-55.72-.26,24.94-.26,55.72-.26S337.28,308.41,337.28,308.55Z"
      style="fill:#263238"></path>
    <path
      d="M337.28,316c0,.14-24.95.26-55.71.26s-55.72-.12-55.72-.26,24.94-.26,55.72-.26S337.28,315.85,337.28,316Z"
      style="fill:#263238"></path>
    <path
      d="M337.28,323.44c0,.15-24.95.26-55.71.26s-55.72-.11-55.72-.26,24.94-.26,55.72-.26S337.28,323.3,337.28,323.44Z"
      style="fill:#263238"></path>
    <polygon points="327.03 330.23 303.71 378.53 320.36 378.53 327.03 330.23" style="fill:#e0e0e0"></polygon>
    <polygon points="320.36 378.8 327.03 330.5 365.27 342.3 320.36 378.8" style="fill:#fafafa"></polygon>
    <path
      d="M320.36,378.8l12.86-10.59,31.89-26.11.09.44L350.43,338,327,330.73l.31-.2c-2,14-3.71,26.05-4.92,34.59-1.21,8.31-1.83,12.6-2,13.68a2.1,2.1,0,0,1,0-.22l.09-.66c.08-.63.19-1.51.34-2.63.31-2.35.75-5.72,1.31-10,1.16-8.61,2.78-20.72,4.67-34.87l0-.28.27.08,23.49,7.24,14.76,4.56.46.14-.37.3c-12.91,10.41-24.2,19.51-32.28,26l-9.43,7.57-2.52,2-.64.51Z"
      style="fill:#263238"></path>
    <g style="opacity:0.30000000000000004">
      <polyline points="280.26 48.82 277.5 64.92 280.94 64.92 283.73 48.82 279.34 48.82"></polyline>
    </g>
  </g>
</svg>